<svg width="40" height="40" viewBox="0 0 40 40" fill="none" xmlns="http://www.w3.org/2000/svg">
<path d="M16 29.0844C15.5582 29.0844 15.2 29.4427 15.2 29.8844C15.2 30.3262 15.5582 30.6844 16 30.6844H24C24.4418 30.6844 24.8 30.3262 24.8 29.8844C24.8 29.4427 24.4418 29.0844 24 29.0844H16Z" fill="#CF3131"/>
<path fill-rule="evenodd" clip-rule="evenodd" d="M23.4701 5.20466C21.4355 3.59845 18.5645 3.59845 16.53 5.20466L6.12998 13.4152C4.78482 14.4772 4 16.0967 4 17.8105V30.6844C4 33.7772 6.5072 36.2844 9.6 36.2844H30.4C33.4928 36.2844 36 33.7772 36 30.6844V17.8105C36 16.0967 35.2152 14.4772 33.8701 13.4152L23.4701 5.20466ZM17.5214 6.46046C18.9747 5.31317 21.0253 5.31317 22.4786 6.46046L32.8786 14.671C33.8394 15.4296 34.4 16.5863 34.4 17.8105V30.6844C34.4 32.8935 32.6091 34.6844 30.4 34.6844H9.6C7.39086 34.6844 5.6 32.8935 5.6 30.6844V17.8105C5.6 16.5863 6.16058 15.4296 7.12142 14.671L17.5214 6.46046Z" fill="#CF3131"/>
</svg>
