<svg width="40" height="40" viewBox="0 0 40 40" fill="none" xmlns="http://www.w3.org/2000/svg">
<g id="heart 1">
<g id="Group">
<g id="Group_2">
<path id="Vector" d="M27.6667 5C24.1172 5 21.1856 8.29687 20 9.85287C18.8144 8.29687 15.8828 5 12.3333 5C7.73831 5 4 9.22462 4 14.4167C4 17.2494 5.12437 19.8893 7.09244 21.696C7.12106 21.7455 7.15625 21.7911 7.19725 21.8321L19.5293 34.1387C19.6595 34.2682 19.8294 34.3334 20 34.3334C20.1706 34.3334 20.3411 34.2682 20.4714 34.1381L33.2136 21.4004L33.3451 21.2728C33.4492 21.1745 33.5521 21.0749 33.6673 20.9473C33.7155 20.8998 33.7552 20.8464 33.7858 20.7884C35.2149 19.0384 36 16.7812 36 14.4167C36 9.22462 32.2617 5 27.6667 5ZM32.6764 20.0384C32.6582 20.0599 32.6413 20.0827 32.6263 20.1061C32.5638 20.1777 32.4954 20.2409 32.4277 20.3054L19.9994 32.7246L8.29169 21.0404C8.25394 20.9661 8.20119 20.8984 8.13675 20.8418C6.35481 19.2858 5.33331 16.944 5.33331 14.4167C5.33331 9.95962 8.47331 6.33337 12.3333 6.33337C16.1497 6.33337 19.4069 11.3112 19.4394 11.3614C19.6856 11.7416 20.3144 11.7416 20.5606 11.3614C20.5931 11.3112 23.8503 6.33337 27.6667 6.33337C31.5267 6.33337 34.6667 9.95969 34.6667 14.4167C34.6667 16.5169 33.9596 18.5137 32.6764 20.0384Z" fill="#939393"/>
</g>
</g>
</g>
</svg>
