<svg width="32" height="32" viewBox="0 0 32 32" fill="none" xmlns="http://www.w3.org/2000/svg">
<path fill-rule="evenodd" clip-rule="evenodd" d="M20.9743 22.1863L26.5373 27.7493C26.8716 28.0836 27.415 28.0836 27.7493 27.7493C28.0836 27.415 28.0836 26.8716 27.7493 26.5373L22.1863 20.9743C23.7095 19.1768 24.6275 16.8514 24.6275 14.3142C24.6275 8.6218 20.0066 4 14.3142 4C8.62179 4 4 8.6218 4 14.3142C4 20.0066 8.62179 24.6275 14.3142 24.6275C16.8514 24.6275 19.1769 23.7095 20.9743 22.1863ZM14.3142 5.71432C19.0603 5.71432 22.9132 9.5681 22.9132 14.3142C22.9132 19.0603 19.0603 22.9132 14.3142 22.9132C9.56809 22.9132 5.71432 19.0603 5.71432 14.3142C5.71432 9.5681 9.56809 5.71432 14.3142 5.71432Z" fill="#DADADA"/>
</svg>
