<svg width="40" height="40" viewBox="0 0 40 40" fill="none" xmlns="http://www.w3.org/2000/svg">
<path d="M20 4C16.8355 4 13.7421 4.93838 11.1109 6.69649C8.4797 8.45459 6.42894 10.9534 5.21793 13.8771C4.00693 16.8007 3.69008 20.0177 4.30744 23.1214C4.92481 26.2251 6.44866 29.0761 8.6863 31.3137C10.9239 33.5513 13.7749 35.0752 16.8786 35.6926C19.9823 36.3099 23.1993 35.9931 26.1229 34.7821C29.0466 33.5711 31.5454 31.5203 33.3035 28.8891C35.0616 26.2579 36 23.1645 36 20C35.9952 15.758 34.308 11.6911 31.3084 8.69159C28.3089 5.69204 24.242 4.00479 20 4ZM20 34.9677C17.0397 34.9677 14.1458 34.0899 11.6844 32.4452C9.22294 30.8005 7.30449 28.4629 6.17162 25.7279C5.03874 22.9929 4.74233 19.9834 5.31987 17.0799C5.8974 14.1765 7.32294 11.5095 9.41621 9.41621C11.5095 7.32293 14.1765 5.89739 17.0799 5.31986C19.9834 4.74233 22.9929 5.03874 25.7279 6.17161C28.4629 7.30448 30.8005 9.22293 32.4452 11.6844C34.0899 14.1458 34.9677 17.0397 34.9677 20C34.9632 23.9683 33.3848 27.7728 30.5788 30.5788C27.7728 33.3848 23.9683 34.9632 20 34.9677Z" fill="#DADADA"/>
<path d="M31.1419 27.6144C28.1565 24.7172 24.1601 23.0968 20 23.0968C15.84 23.0968 11.8435 24.7172 8.85814 27.6144C8.76103 27.7101 8.70571 27.8403 8.70425 27.9766C8.7028 28.1129 8.75533 28.2443 8.85038 28.342C8.94543 28.4397 9.07528 28.4958 9.21158 28.4982C9.34788 28.5005 9.47956 28.4488 9.57788 28.3543C12.3705 25.6446 16.1088 24.1291 20 24.1291C23.8912 24.1291 27.6295 25.6446 30.4222 28.3543C30.5205 28.4488 30.6522 28.5005 30.7885 28.4982C30.9248 28.4958 31.0546 28.4397 31.1497 28.342C31.2447 28.2443 31.2972 28.1129 31.2958 27.9766C31.2943 27.8403 31.239 27.7101 31.1419 27.6144Z" fill="#DADADA"/>
<path d="M19.9999 21.0322C21.2249 21.0322 22.4224 20.669 23.4409 19.9884C24.4594 19.3079 25.2533 18.3406 25.722 17.2089C26.1908 16.0771 26.3135 14.8318 26.0745 13.6304C25.8355 12.429 25.2456 11.3254 24.3794 10.4592C23.5133 9.59301 22.4097 9.00313 21.2082 8.76415C20.0068 8.52517 18.7615 8.64783 17.6298 9.1166C16.4981 9.58538 15.5308 10.3792 14.8502 11.3977C14.1696 12.4163 13.8064 13.6137 13.8064 14.8387C13.8082 16.4808 14.4613 18.0551 15.6225 19.2162C16.7836 20.3773 18.3579 21.0304 19.9999 21.0322ZM19.9999 9.6774C21.0208 9.6774 22.0186 9.98011 22.8674 10.5472C23.7162 11.1144 24.3777 11.9204 24.7684 12.8636C25.159 13.8067 25.2612 14.8444 25.0621 15.8456C24.8629 16.8468 24.3713 17.7665 23.6495 18.4883C22.9277 19.2101 22.0081 19.7017 21.0069 19.9008C20.0057 20.1 18.9679 19.9977 18.0248 19.6071C17.0817 19.2165 16.2756 18.5549 15.7085 17.7062C15.1414 16.8574 14.8387 15.8595 14.8387 14.8387C14.8402 13.4703 15.3845 12.1584 16.3521 11.1908C17.3197 10.2232 18.6316 9.67896 19.9999 9.6774Z" fill="#DADADA"/>
</svg>
