<svg width="40" height="40" viewBox="0 0 40 40" fill="none" xmlns="http://www.w3.org/2000/svg">
<g id="album 1">
<g id="Group">
<g id="Group_2">
<g id="Group_3">
<path id="Vector" d="M30.1818 6.90912H6.90911C5.30466 6.90912 4 8.21378 4 9.81817V33.0909C4 34.6953 5.30466 36 6.90911 36H30.1818C31.7862 36 33.0909 34.6953 33.0909 33.0909V9.81817C33.0909 8.21378 31.7862 6.90912 30.1818 6.90912ZM31.6363 33.091C31.6363 33.8928 30.9836 34.5455 30.1818 34.5455H6.90911C6.10729 34.5455 5.45459 33.8928 5.45459 33.091V9.81817C5.45452 9.01635 6.10722 8.36364 6.90911 8.36364H30.1818C30.9836 8.36364 31.6363 9.01635 31.6363 9.81817V33.091Z" fill="#939393"/>
<path id="Vector_2" d="M33.0909 4H9.09091C8.68891 4 8.36362 4.3253 8.36362 4.7273C8.36362 5.1293 8.68891 5.45459 9.09091 5.45459H33.0909C33.8927 5.45459 34.5454 6.1073 34.5454 6.90912V30.9091C34.5454 31.3111 34.8707 31.6364 35.2727 31.6364C35.6747 31.6364 36 31.3111 36 30.9091V6.90912C35.9999 5.30466 34.6953 4 33.0909 4Z" fill="#939393"/>
<path id="Vector_3" d="M18.5454 20C17.7436 20 17.0909 20.6527 17.0909 21.4546C17.0909 22.2564 17.7436 22.9091 18.5454 22.9091C19.3472 22.9091 19.9999 22.2564 19.9999 21.4546C20 20.6527 19.3473 20 18.5454 20Z" fill="#939393"/>
<path id="Vector_4" d="M18.5454 9.81818C12.1293 9.81818 6.90906 15.0384 6.90906 21.4546C6.90906 27.8708 12.1293 33.091 18.5454 33.091C24.9616 33.091 30.1818 27.8708 30.1818 21.4546C30.1818 15.0384 24.9616 9.81818 18.5454 9.81818ZM18.5454 31.6364C12.9311 31.6364 8.36365 27.0689 8.36365 21.4546C8.36365 15.8402 12.9311 11.2728 18.5454 11.2728C24.1597 11.2728 28.7273 15.8402 28.7273 21.4546C28.7273 27.0689 24.1598 31.6364 18.5454 31.6364Z" fill="#939393"/>
<path id="Vector_5" d="M18.5454 17.0909C16.1391 17.0909 14.1818 19.0483 14.1818 21.4546C14.1818 23.8608 16.1391 25.8182 18.5454 25.8182C20.9517 25.8182 22.909 23.8608 22.909 21.4546C22.909 19.0483 20.9517 17.0909 18.5454 17.0909ZM18.5454 24.3637C16.941 24.3637 15.6363 23.059 15.6363 21.4546C15.6363 19.8501 16.9409 18.5454 18.5454 18.5454C20.1498 18.5454 21.4545 19.8502 21.4545 21.4546C21.4545 23.0589 20.1498 24.3637 18.5454 24.3637Z" fill="#939393"/>
<path id="Vector_6" d="M18.5468 14.1818C18.9481 14.1818 19.2741 13.8565 19.2741 13.4545C19.2741 13.0532 18.9488 12.7272 18.5468 12.7272C18.5462 12.7272 18.5454 12.7272 18.544 12.7272C16.2137 12.7272 14.0226 13.6349 12.3742 15.2833C12.0901 15.5675 12.0901 16.0277 12.3742 16.3117C12.5162 16.4538 12.7024 16.5248 12.8884 16.5248C13.0745 16.5248 13.2606 16.4538 13.4027 16.3117C14.7763 14.9381 16.6022 14.1817 18.544 14.1817C18.5447 14.1818 18.5454 14.1818 18.5468 14.1818Z" fill="#939393"/>
</g>
</g>
</g>
</g>
</svg>
