<svg width="40" height="40" viewBox="0 0 40 40" fill="none" xmlns="http://www.w3.org/2000/svg">
<path d="M30.7169 4H25.8193C24.4187 4.00165 23.0759 4.5588 22.0854 5.54922C21.095 6.53964 20.5379 7.88246 20.5362 9.28312V14.1806C20.5379 15.5813 21.095 16.9241 22.0854 17.9145C23.0759 18.905 24.4187 19.4621 25.8193 19.4637H30.7169C32.1175 19.4621 33.4603 18.905 34.4508 17.9145C35.4412 16.9241 35.9983 15.5813 36 14.1806V9.28312C35.9983 7.88246 35.4412 6.53964 34.4508 5.54922C33.4603 4.5588 32.1175 4.00165 30.7169 4ZM34.75 14.1806C34.75 15.2503 34.3251 16.2761 33.5687 17.0325C32.8123 17.7888 31.7865 18.2137 30.7169 18.2137H25.8193C24.7497 18.2137 23.7239 17.7888 22.9675 17.0325C22.2111 16.2761 21.7862 15.2503 21.7862 14.1806V9.28312C21.7862 8.21347 22.2111 7.18763 22.9675 6.43127C23.7239 5.67492 24.7497 5.25 25.8193 5.25H30.7169C31.7865 5.25 32.8123 5.67492 33.5687 6.43127C34.3251 7.18763 34.75 8.21347 34.75 9.28312V14.1806Z" fill="#939393"/>
<path d="M14.1806 4H9.28312C7.88246 4.00165 6.53964 4.5588 5.54922 5.54922C4.5588 6.53964 4.00165 7.88246 4 9.28312L4 14.1806C4.00165 15.5813 4.5588 16.9241 5.54922 17.9145C6.53964 18.905 7.88246 19.4621 9.28312 19.4637H14.1806C15.5813 19.4621 16.9241 18.905 17.9145 17.9145C18.905 16.9241 19.4621 15.5813 19.4637 14.1806V9.28312C19.4621 7.88246 18.905 6.53964 17.9145 5.54922C16.9241 4.5588 15.5813 4.00165 14.1806 4ZM18.2137 14.1806C18.2137 15.2503 17.7888 16.2761 17.0325 17.0325C16.2761 17.7888 15.2503 18.2137 14.1806 18.2137H9.28312C8.21347 18.2137 7.18763 17.7888 6.43127 17.0325C5.67492 16.2761 5.25 15.2503 5.25 14.1806V9.28312C5.25 8.21347 5.67492 7.18763 6.43127 6.43127C7.18763 5.67492 8.21347 5.25 9.28312 5.25H14.1806C15.2503 5.25 16.2761 5.67492 17.0325 6.43127C17.7888 7.18763 18.2137 8.21347 18.2137 9.28312V14.1806Z" fill="#939393"/>
<path d="M30.7169 20.5363H25.8193C24.4187 20.5379 23.0759 21.0951 22.0854 22.0855C21.095 23.0759 20.5379 24.4187 20.5362 25.8194V30.7169C20.5379 32.1175 21.095 33.4604 22.0854 34.4508C23.0759 35.4412 24.4187 35.9984 25.8193 36H30.7169C32.1175 35.9984 33.4603 35.4412 34.4508 34.4508C35.4412 33.4604 35.9983 32.1175 36 30.7169V25.8194C35.9983 24.4187 35.4412 23.0759 34.4508 22.0855C33.4603 21.0951 32.1175 20.5379 30.7169 20.5363ZM34.75 30.7169C34.75 31.7865 34.3251 32.8124 33.5687 33.5687C32.8123 34.3251 31.7865 34.75 30.7169 34.75H25.8193C24.7497 34.75 23.7239 34.3251 22.9675 33.5687C22.2111 32.8124 21.7862 31.7865 21.7862 30.7169V25.8194C21.7862 24.7497 22.2111 23.7239 22.9675 22.9675C23.7239 22.2112 24.7497 21.7863 25.8193 21.7863H30.7169C31.7865 21.7863 32.8123 22.2112 33.5687 22.9675C34.3251 23.7239 34.75 24.7497 34.75 25.8194V30.7169Z" fill="#939393"/>
<path d="M14.1806 20.5363H9.28312C7.88246 20.5379 6.53964 21.0951 5.54922 22.0855C4.5588 23.0759 4.00165 24.4187 4 25.8194L4 30.7169C4.00165 32.1175 4.5588 33.4604 5.54922 34.4508C6.53964 35.4412 7.88246 35.9984 9.28312 36H14.1806C15.5813 35.9984 16.9241 35.4412 17.9145 34.4508C18.905 33.4604 19.4621 32.1175 19.4637 30.7169V25.8194C19.4621 24.4187 18.905 23.0759 17.9145 22.0855C16.9241 21.0951 15.5813 20.5379 14.1806 20.5363ZM18.2137 30.7169C18.2137 31.7865 17.7888 32.8124 17.0325 33.5687C16.2761 34.3251 15.2503 34.75 14.1806 34.75H9.28312C8.21347 34.75 7.18763 34.3251 6.43127 33.5687C5.67492 32.8124 5.25 31.7865 5.25 30.7169V25.8194C5.25 24.7497 5.67492 23.7239 6.43127 22.9675C7.18763 22.2112 8.21347 21.7863 9.28312 21.7863H14.1806C15.2503 21.7863 16.2761 22.2112 17.0325 22.9675C17.7888 23.7239 18.2137 24.7497 18.2137 25.8194V30.7169Z" fill="#939393"/>
</svg>
