<svg width="40" height="40" viewBox="0 0 40 40" fill="none" xmlns="http://www.w3.org/2000/svg">
<g id="play-button 1">
<g id="Group">
<g id="Group_2">
<g id="Group_3">
<path id="Vector" d="M20 4C11.1771 4 4 11.1777 4 20C4 28.8223 11.1771 36 20 36C28.8229 36 36 28.8223 36 20C36 11.1777 28.8229 4 20 4ZM20 34.6667C11.9128 34.6667 5.33331 28.0872 5.33331 20C5.33331 11.9128 11.9128 5.33331 20 5.33331C28.0872 5.33331 34.6667 11.9128 34.6667 20C34.6667 28.0872 28.0872 34.6667 20 34.6667Z" fill="#DADADA"/>
<path id="Vector_2" d="M26.3607 19.4394L17.0274 13.4394C16.8229 13.306 16.5586 13.2988 16.3477 13.4147C16.1328 13.5319 16 13.7559 16 14V26C16 26.2441 16.1328 26.4681 16.3477 26.5853C16.4466 26.6394 16.5573 26.6667 16.6667 26.6667C16.7917 26.6667 16.918 26.6315 17.0274 26.5606L26.3607 20.5606C26.5508 20.4382 26.6667 20.2266 26.6667 20C26.6667 19.7734 26.5508 19.5619 26.3607 19.4394ZM17.3333 24.7786V15.2214L24.7669 20L17.3333 24.7786Z" fill="#DADADA"/>
</g>
</g>
</g>
</g>
</svg>
