<svg width="40" height="40" viewBox="0 0 40 40" fill="none" xmlns="http://www.w3.org/2000/svg">
<path d="M35.9999 20.0478C36 20.1478 35.9803 20.2469 35.9421 20.3394C35.9038 20.4319 35.8477 20.5159 35.7769 20.5867C35.7062 20.6574 35.6221 20.7135 35.5297 20.7518C35.4372 20.7901 35.3381 20.8097 35.238 20.8097H20C19.7979 20.8097 19.6041 20.7294 19.4612 20.5865C19.3183 20.4436 19.2381 20.2498 19.2381 20.0478C19.2381 19.8457 19.3183 19.6519 19.4612 19.509C19.6041 19.3661 19.7979 19.2859 20 19.2859H35.238C35.3381 19.2858 35.4372 19.3055 35.5297 19.3438C35.6222 19.382 35.7062 19.4382 35.7769 19.5089C35.8477 19.5797 35.9038 19.6637 35.9421 19.7562C35.9803 19.8487 36 19.9477 35.9999 20.0478ZM35.9999 26.143C36 26.2431 35.9803 26.3422 35.9421 26.4346C35.9038 26.5271 35.8477 26.6111 35.7769 26.6819C35.7062 26.7526 35.6221 26.8088 35.5297 26.847C35.4372 26.8853 35.3381 26.905 35.238 26.9049H4.7619C4.55983 26.9049 4.36604 26.8246 4.22316 26.6818C4.08027 26.5389 4 26.3451 4 26.143C4 25.9409 4.08027 25.7471 4.22316 25.6043C4.36604 25.4614 4.55983 25.3811 4.7619 25.3811H35.238C35.3381 25.381 35.4372 25.4007 35.5297 25.439C35.6222 25.4773 35.7062 25.5334 35.7769 25.6042C35.8477 25.6749 35.9038 25.7589 35.9421 25.8514C35.9803 25.9439 36 26.0429 35.9999 26.143ZM35.9999 32.2382C36 32.3383 35.9803 32.4374 35.9421 32.5299C35.9038 32.6223 35.8477 32.7064 35.7769 32.7771C35.7062 32.8479 35.6221 32.904 35.5297 32.9423C35.4372 32.9805 35.3381 33.0002 35.238 33.0001H4.7619C4.55983 33.0001 4.36604 32.9199 4.22316 32.777C4.08027 32.6341 4 32.4403 4 32.2382C4 32.0362 4.08027 31.8424 4.22316 31.6995C4.36604 31.5566 4.55983 31.4763 4.7619 31.4763H35.238C35.3381 31.4763 35.4372 31.4959 35.5297 31.5342C35.6222 31.5725 35.7062 31.6286 35.7769 31.6994C35.8477 31.7702 35.9038 31.8542 35.9421 31.9466C35.9803 32.0391 36 32.1382 35.9999 32.2382Z" fill="#939393"/>
<rect x="11" y="21" width="14" height="2" rx="1" transform="rotate(-90 11 21)" fill="#939393"/>
<rect x="19" y="15" width="14" height="2" rx="1" transform="rotate(180 19 15)" fill="#939393"/>
</svg>
