<svg width="40" height="40" viewBox="0 0 40 40" fill="none" xmlns="http://www.w3.org/2000/svg">
<path d="M21.6445 9.58422C21.2758 9.58422 20.9766 9.28497 20.9766 8.91625V6.67188C20.9766 5.93577 20.3767 5.33594 19.6406 5.33594C18.9045 5.33594 18.3047 5.93577 18.3047 6.67188V8.91625C18.3047 9.28497 18.0054 9.58422 17.6367 9.58422C17.268 9.58422 16.9688 9.28631 16.9688 8.91625V6.67188C16.9688 5.19834 18.1671 4 19.6406 4C21.1142 4 22.3125 5.19834 22.3125 6.67188V8.91625C22.3125 9.28631 22.0132 9.58422 21.6445 9.58422Z" fill="#DADADA"/>
<path d="M19.5 36.0625C17.0186 36.0625 15 34.1 15 31.6875C15 31.3425 15.288 31.0625 15.6429 31.0625C15.9977 31.0625 16.2857 31.3425 16.2857 31.6875C16.2857 33.41 17.7283 34.8125 19.5 34.8125C21.2717 34.8125 22.7143 33.41 22.7143 31.6875C22.7143 31.3425 23.0023 31.0625 23.3571 31.0625C23.712 31.0625 24 31.3425 24 31.6875C24 34.1 21.9814 36.0625 19.5 36.0625Z" fill="#DADADA"/>
<path d="M30.975 31.8438H8.025C6.90855 31.8438 6 30.9604 6 29.875C6 29.2988 6.25785 28.7541 6.70875 28.3787C8.83635 26.6305 10.05 24.0869 10.05 21.3936V17.4062C10.05 12.34 14.289 8.21875 19.5 8.21875C24.711 8.21875 28.95 12.34 28.95 17.4062V21.3936C28.95 24.0882 30.1636 26.6305 32.2804 28.3696C32.7421 28.7541 33 29.2988 33 29.875C33 30.9604 32.0928 31.8438 30.975 31.8438ZM19.5 9.53125C15.0329 9.53125 11.4 13.0632 11.4 17.4062V21.3936C11.4 24.4754 10.0122 27.3826 7.59165 29.3723C7.4364 29.5009 7.35 29.6834 7.35 29.875C7.35 30.2372 7.6524 30.5312 8.025 30.5312H30.975C31.3476 30.5312 31.65 30.2372 31.65 29.875C31.65 29.6834 31.5636 29.5009 31.4138 29.3763C28.9892 27.3826 27.6 24.4741 27.6 21.3936V17.4062C27.6 13.0632 23.9671 9.53125 19.5 9.53125Z" fill="#DADADA"/>
</svg>
