<svg width="40" height="40" viewBox="0 0 40 40" fill="none" xmlns="http://www.w3.org/2000/svg">
<path d="M5.12803 23.5419C5.45168 23.7255 5.81897 23.8181 6.19098 23.81C6.56299 23.8019 6.92588 23.6933 7.2412 23.4957L19.7129 15.8149C20.0344 15.6106 20.2991 15.3284 20.4825 14.9945C20.6659 14.6606 20.762 14.2859 20.762 13.9049C20.762 13.524 20.6659 13.1493 20.4825 12.8154C20.2991 12.4815 20.0344 12.1993 19.7129 11.995L7.2412 4.31425C6.92577 4.11701 6.56293 4.00861 6.191 4.00049C5.81906 3.99237 5.45184 4.08484 5.1281 4.26813C4.78308 4.46454 4.49666 4.74941 4.29838 5.09337C4.1001 5.43733 3.99712 5.82794 4.00006 6.22495V21.585C3.99711 21.982 4.10008 22.3727 4.29835 22.7166C4.49661 23.0606 4.78301 23.3455 5.12803 23.5419ZM5.52387 6.22495C5.5199 6.09898 5.55001 5.97428 5.61104 5.86401C5.67207 5.75374 5.76175 5.662 5.8706 5.59847C5.95509 5.55069 6.05031 5.52509 6.14738 5.52406C6.25239 5.52488 6.35503 5.55532 6.44352 5.61186L18.9152 13.2927C19.0148 13.3608 19.0962 13.4522 19.1524 13.5589C19.2087 13.6656 19.2381 13.7844 19.2381 13.905C19.2381 14.0256 19.2087 14.1444 19.1524 14.2511C19.0962 14.3578 19.0148 14.4492 18.9152 14.5174L6.44352 22.1982C6.35858 22.2531 6.26007 22.2834 6.15893 22.2858C6.0578 22.2882 5.95798 22.2625 5.87056 22.2115C5.76172 22.148 5.67205 22.0563 5.61103 21.946C5.55001 21.8357 5.51989 21.711 5.52387 21.585V6.22495ZM36 23.0478C36.0001 23.1479 35.9804 23.247 35.9421 23.3394C35.9039 23.4319 35.8477 23.5159 35.777 23.5867C35.7062 23.6574 35.6222 23.7135 35.5297 23.7518C35.4373 23.7901 35.3382 23.8097 35.2381 23.8097H20C19.798 23.8097 19.6042 23.7294 19.4613 23.5865C19.3184 23.4436 19.2381 23.2498 19.2381 23.0478C19.2381 22.8457 19.3184 22.6519 19.4613 22.509C19.6042 22.3661 19.798 22.2859 20 22.2859H35.2381C35.3382 22.2858 35.4373 22.3055 35.5297 22.3438C35.6222 22.382 35.7062 22.4382 35.777 22.5089C35.8477 22.5797 35.9039 22.6637 35.9421 22.7562C35.9804 22.8487 36.0001 22.9477 36 23.0478ZM36 29.143C36.0001 29.2431 35.9804 29.3422 35.9421 29.4346C35.9039 29.5271 35.8477 29.6111 35.777 29.6819C35.7062 29.7526 35.6222 29.8088 35.5297 29.847C35.4373 29.8853 35.3382 29.905 35.2381 29.9049H4.76196C4.5599 29.9049 4.3661 29.8246 4.22322 29.6818C4.08033 29.5389 4.00006 29.3451 4.00006 29.143C4.00006 28.9409 4.08033 28.7471 4.22322 28.6043C4.3661 28.4614 4.5599 28.3811 4.76196 28.3811H35.2381C35.3382 28.381 35.4373 28.4007 35.5297 28.439C35.6222 28.4773 35.7062 28.5334 35.777 28.6042C35.8477 28.6749 35.9039 28.7589 35.9421 28.8514C35.9804 28.9439 36.0001 29.0429 36 29.143ZM36 35.2382C36.0001 35.3383 35.9804 35.4374 35.9421 35.5299C35.9039 35.6223 35.8477 35.7064 35.777 35.7771C35.7062 35.8479 35.6222 35.904 35.5297 35.9423C35.4373 35.9805 35.3382 36.0002 35.2381 36.0001H4.76196C4.5599 36.0001 4.3661 35.9199 4.22322 35.777C4.08033 35.6341 4.00006 35.4403 4.00006 35.2382C4.00006 35.0362 4.08033 34.8424 4.22322 34.6995C4.3661 34.5566 4.5599 34.4763 4.76196 34.4763H35.2381C35.3382 34.4763 35.4373 34.4959 35.5297 34.5342C35.6222 34.5725 35.7062 34.6286 35.777 34.6994C35.8477 34.7702 35.9039 34.8542 35.9421 34.9466C35.9804 35.0391 36.0001 35.1382 36 35.2382Z" fill="#939393"/>
</svg>
